# xmcd CD database file
#
# Track frame offsets:
#	150
#	16753
#	28493
#	45218
#	59918
#	72264
#	78859
#	90184
#	101959
#	113734
#	129184
#	140509
#
# Disc length: 2091 seconds
#
# Revision: 0
# Processed by: cddbd v1.5.2PL0 Copyright (c) Steve Scherf et al.
# Submitted via: CDex 1.79
#
DISCID=9808290c
DTITLE=Chelsea Robson - Chelsea Robson
DYEAR=1900
DGENRE=Country
TTITLE0=You'll Forget about Her
TTITLE1=I Got Rich
TTITLE2=Find Me a Cowboy
TTITLE3=Most Lonely Times
TTITLE4=Blue Moon of Kentucky
TTITLE5=Walkin' After Midnight
TTITLE6=Crazy
TTITLE7=Pinto Pal
TTITLE8=Cowboy Sweetheart
TTITLE9=Grandpa
TTITLE10=I Love You Arizona
TTITLE11=Just Love
EXTD=
EXTT0=
EXTT1=
EXTT2=
EXTT3=
EXTT4=
EXTT5=
EXTT6=
EXTT7=
EXTT8=
EXTT9=
EXTT10=
EXTT11=
PLAYORDER=
